<svg width="35" height="35" viewBox="0 0 35 35" fill="none" xmlns="http://www.w3.org/2000/svg">
<path d="M31.6546 7.7175L27.281 3.34396C27.1458 3.20827 26.9851 3.10066 26.8082 3.02733C26.6312 2.954 26.4415 2.91639 26.25 2.91667H8.74999C8.55846 2.91647 8.36878 2.95412 8.19184 3.02744C8.0149 3.10077 7.85419 3.20834 7.71895 3.34396L3.34541 7.7175C3.20928 7.85275 3.10131 8.01363 3.02772 8.19085C2.95412 8.36807 2.91638 8.55811 2.91666 8.75V27.7083C2.91666 29.3169 4.22478 30.625 5.83332 30.625H29.1667C30.7752 30.625 32.0833 29.3169 32.0833 27.7083V8.75C32.0838 8.55809 32.0461 8.36799 31.9725 8.19075C31.8989 8.01351 31.7908 7.85265 31.6546 7.7175ZM9.35374 5.83333H25.6462L27.1046 7.29167H7.89541L9.35374 5.83333ZM17.5 26.25L10.2083 18.9583H14.5833V14.5833H20.4167V18.9583H24.7917L17.5 26.25Z" fill="#398AB9"/>
</svg>
