<svg width="40" height="40" viewBox="0 0 40 40" fill="none" xmlns="http://www.w3.org/2000/svg">
<path d="M36.1767 8.82L31.1783 3.82166C31.0238 3.66659 30.8402 3.54361 30.6379 3.4598C30.4357 3.376 30.2189 3.33301 30 3.33333H9.99998C9.78108 3.33301 9.56427 3.376 9.36204 3.4598C9.15981 3.54361 8.97616 3.66659 8.82165 3.82166L3.82332 8.82C3.6676 8.97445 3.5441 9.1583 3.45998 9.36086C3.37587 9.56342 3.33281 9.78067 3.33332 10V31.6667C3.33332 33.505 4.82832 35 6.66665 35H33.3333C35.1717 35 36.6667 33.505 36.6667 31.6667V10C36.6672 9.78067 36.6241 9.56342 36.54 9.36086C36.4559 9.1583 36.3324 8.97445 36.1767 8.82ZM10.69 6.66666H29.31L30.9767 8.33333H9.02332L10.69 6.66666ZM23.3333 23.3333V28.3333H16.6667V23.3333H11.6667L20 15L28.3333 23.3333H23.3333Z" fill="#398AB9"/>
</svg>
