<svg width="35" height="35" viewBox="0 0 35 35" fill="none" xmlns="http://www.w3.org/2000/svg">
<path d="M29.1667 4.375H5.83332C4.22478 4.375 2.91666 5.68313 2.91666 7.29167V27.7083C2.91666 29.3169 4.22478 30.625 5.83332 30.625H29.1667C30.7752 30.625 32.0833 29.3169 32.0833 27.7083V7.29167C32.0833 5.68313 30.7752 4.375 29.1667 4.375ZM5.83332 27.7083V10.2083H29.1667L29.1696 27.7083H5.83332Z" fill="#398AB9"/>
<path d="M13.5523 13.5523L8.14624 18.9583L13.5523 24.3644L15.6144 22.3023L12.2704 18.9583L15.6144 15.6144L13.5523 13.5523ZM21.4477 13.5523L19.3856 15.6144L22.7296 18.9583L19.3856 22.3023L21.4477 24.3644L26.8537 18.9583L21.4477 13.5523Z" fill="#398AB9"/>
</svg>
