<svg width="84" height="42" viewBox="0 0 84 42" fill="none" xmlns="http://www.w3.org/2000/svg">
<path fill-rule="evenodd" clip-rule="evenodd" d="M77 39C78.6569 39 80 37.6569 80 36V5C80 3.34315 78.6569 2 77 2L52 2C50.3431 2 49 3.34315 49 5L49 36C49 37.6569 50.3431 39 52 39L77 39ZM64.8731 9.23267C64.6022 9.08523 64.3121 9 64.0017 9C63.7116 9 63.4012 9.06335 63.1292 9.19005L54.8703 14.0691C54.3307 14.3882 54 14.9802 54 15.6126V25.3546C54 25.9881 54.3296 26.5813 54.8703 26.8969L63.1292 31.7772C63.3973 31.9235 63.6966 32 64.0006 32C64.3046 32 64.6039 31.9235 64.8719 31.7772L73.1297 26.8969C73.6693 26.5802 74 25.9881 74 25.3546V15.6126C74 15.3001 73.9196 14.9931 73.7669 14.7222C73.6142 14.4514 73.3945 14.2262 73.1297 14.0691L70.9569 12.8033C69.9004 12.2735 69.528 12.2735 69.0516 12.2735C67.4985 12.2735 66.6091 13.2467 66.6091 14.9157V24.5299C66.6091 24.6785 66.7355 24.7845 66.8574 24.7845L67.9139 24.7845C68.0595 24.7845 68.1622 24.6566 68.1622 24.5299V14.9169C68.1622 14.1797 68.9297 13.4391 70.151 14.0703L72.4085 15.4029C72.4909 15.4444 72.5326 15.5515 72.5326 15.6356V25.3765C72.5326 25.4594 72.4909 25.5666 72.4085 25.608L64.145 30.4664C64.0818 30.509 63.978 30.509 63.8956 30.4664L55.6344 25.6069C55.5509 25.5654 55.5102 25.4802 55.5102 25.3754V15.6333C55.5102 15.5273 55.5509 15.4421 55.6344 15.4006L63.8956 10.5204C63.9577 10.4789 64.0615 10.4789 64.145 10.5204L66.2558 11.8104C66.319 11.853 66.4014 11.8726 66.4646 11.83C67.0436 11.4937 67.1475 11.4522 67.7073 11.2622C67.8315 11.2195 68.038 11.1343 67.6261 10.9005L64.8731 9.23267ZM65.8235 18.825C65.8235 17.3898 65.0785 15.699 61.4553 15.699C58.8242 15.699 57.3354 16.754 57.3128 18.6142C57.3128 20.4329 58.5138 20.919 61.0602 21.2565C63.6303 21.5951 63.8979 21.7852 63.8979 22.3968C63.8979 22.9036 63.6698 23.5797 61.7634 23.5797C60.0669 23.5797 59.4258 23.2019 59.1764 22.0363C59.1643 21.9834 59.1354 21.9361 59.0941 21.9019C59.0528 21.8677 59.0015 21.8485 58.9484 21.8474H57.8727C57.8106 21.8474 57.7496 21.89 57.7079 21.9314C57.6687 21.9869 57.6467 22.0531 57.6447 22.1215C57.8095 24.1475 59.1143 25.0794 61.7634 25.0794C64.1247 25.0794 65.5323 24.0646 65.5323 22.3542C65.5323 20.517 64.1247 20.0068 61.8684 19.7764C59.1572 19.5023 58.9484 19.1014 58.9484 18.552C58.9484 17.6018 59.6956 17.1986 61.4338 17.1986C63.6303 17.1986 64.1055 17.7492 64.2715 18.8676C64.2715 18.9955 64.3742 19.0795 64.4983 19.0795H65.5751C65.7196 19.0795 65.8235 18.9517 65.8235 18.825Z" fill="#EEEEEE"/>
<path d="M34.6709 36.7969V24H36.376L42.8184 33.8701V24H44.5146V36.7969H42.8184L36.3496 26.9004V36.7969H34.6709ZM32.3418 28.6494V28.8516C32.3418 29.5371 32.2422 30.1729 32.043 30.7588C31.8438 31.3506 31.5566 31.8633 31.1816 32.2969C30.8066 32.7363 30.3525 33.0762 29.8193 33.3164C29.2861 33.5625 28.6885 33.6855 28.0264 33.6855C27.3584 33.6855 26.7578 33.5625 26.2246 33.3164C25.6855 33.0762 25.2285 32.7363 24.8535 32.2969C24.4727 31.8633 24.1826 31.3506 23.9834 30.7588C23.7842 30.1729 23.6846 29.5371 23.6846 28.8516V28.6494C23.6846 27.9639 23.7842 27.3281 23.9834 26.7422C24.1826 26.1563 24.4727 25.6436 24.8535 25.2041C25.2285 24.7705 25.6826 24.4307 26.2158 24.1846C26.7432 23.9443 27.3408 23.8242 28.0088 23.8242C28.6768 23.8242 29.2773 23.9443 29.8105 24.1846C30.3437 24.4307 30.8008 24.7705 31.1816 25.2041C31.5566 25.6436 31.8437 26.1563 32.043 26.7422C32.2422 27.3281 32.3418 27.9639 32.3418 28.6494ZM30.7158 28.8516V28.6494C30.7158 28.1748 30.6602 27.7266 30.5488 27.3047C30.4375 26.8887 30.2705 26.5195 30.0479 26.1973C29.8193 25.875 29.5352 25.6201 29.1953 25.4326C28.8555 25.251 28.46 25.1602 28.0088 25.1602C27.5635 25.1602 27.1738 25.251 26.8398 25.4326C26.5 25.6201 26.2187 25.875 25.9961 26.1973C25.7734 26.5195 25.6064 26.8887 25.4951 27.3047C25.3779 27.7266 25.3193 28.1748 25.3193 28.6494V28.8516C25.3193 29.3203 25.3779 29.7627 25.4951 30.1787C25.6064 30.6006 25.7764 30.9727 26.0049 31.2949C26.2275 31.623 26.5088 31.8809 26.8486 32.0684C27.1826 32.2559 27.5752 32.3496 28.0264 32.3496C28.4717 32.3496 28.8643 32.2559 29.2041 32.0684C29.5381 31.8809 29.8193 31.623 30.0479 31.2949C30.2705 30.9727 30.4375 30.6006 30.5488 30.1787C30.6602 29.7627 30.7158 29.3203 30.7158 28.8516ZM17.6641 33.5098L17.6641 32.2617H22.8057L22.8057 33.5098H17.6641ZM21.0654 35.8213H19.4395L19.4395 26.3555C19.4395 26.0332 19.3896 25.79 19.29 25.626C19.1904 25.4619 19.0615 25.3535 18.9033 25.3008C18.7451 25.248 18.5752 25.2217 18.3936 25.2217C18.2588 25.2217 18.1182 25.2334 17.9717 25.2568C17.8193 25.2861 17.7051 25.3096 17.6289 25.3271L17.6201 24C17.749 23.959 17.9189 23.9209 18.1299 23.8857C18.335 23.8447 18.584 23.8242 18.877 23.8242C19.2754 23.8242 19.6416 23.9033 19.9756 24.0615C20.3096 24.2197 20.5762 24.4834 20.7754 24.8525C20.9687 25.2275 21.0654 25.7314 21.0654 26.3643L21.0654 35.8213ZM11.8105 23.8242C12.4727 23.8242 13.0732 23.9355 13.6123 24.1582C14.1455 24.3867 14.6055 24.7061 14.9922 25.1162C15.373 25.5264 15.666 26.0127 15.8711 26.5752C16.0762 27.1377 16.1787 27.7529 16.1787 28.4209V28.79C16.1787 29.5635 16.0645 30.252 15.8359 30.8555C15.6074 31.4648 15.2969 31.9805 14.9043 32.4023C14.5117 32.8242 14.0664 33.1436 13.5684 33.3604C13.0703 33.5771 12.5547 33.6855 12.0215 33.6855C11.3418 33.6855 10.7559 33.5684 10.2637 33.334C9.76562 33.0996 9.3584 32.7715 9.04199 32.3496C8.72559 31.9336 8.49121 31.4414 8.33887 30.873C8.18652 30.3105 8.11035 29.6953 8.11035 29.0273V28.2979H15.2119V29.625H9.73633V29.748C9.75977 30.1699 9.84766 30.5801 10 30.9785C10.1465 31.377 10.3809 31.7051 10.7031 31.9629C11.0254 32.2207 11.4648 32.3496 12.0215 32.3496C12.3906 32.3496 12.7305 32.2705 13.041 32.1123C13.3516 31.96 13.6182 31.7314 13.8408 31.4268C14.0635 31.1221 14.2363 30.75 14.3594 30.3105C14.4824 29.8711 14.5439 29.3643 14.5439 28.79V28.4209C14.5439 27.9697 14.4824 27.5449 14.3594 27.1465C14.2305 26.7539 14.0459 26.4082 13.8057 26.1094C13.5596 25.8105 13.2637 25.5762 12.918 25.4063C12.5664 25.2363 12.168 25.1514 11.7227 25.1514C11.1484 25.1514 10.6621 25.2686 10.2637 25.5029C9.86523 25.7373 9.5166 26.0508 9.21777 26.4434L8.2334 25.6611C8.43848 25.3506 8.69922 25.0547 9.01562 24.7734C9.33203 24.4922 9.72168 24.2637 10.1846 24.0879C10.6416 23.9121 11.1836 23.8242 11.8105 23.8242ZM44.7695 16.5H43.1348V4.8457L43.2754 3H44.7695V16.5ZM36.71 7.83398V7.64941C36.71 6.95801 36.792 6.31641 36.9561 5.72461C37.1201 5.13867 37.3604 4.62891 37.6768 4.19531C37.9932 3.76172 38.3799 3.4248 38.8369 3.18457C39.2939 2.94434 39.8184 2.82422 40.4102 2.82422C41.0137 2.82422 41.5439 2.92676 42.001 3.13184C42.4521 3.34277 42.833 3.64453 43.1436 4.03711C43.4541 4.42969 43.7031 4.9043 43.8906 5.46094C44.0723 6.01758 44.1982 6.64453 44.2686 7.3418V8.15039C44.1982 8.85352 44.0723 9.4834 43.8906 10.04C43.7031 10.5967 43.4541 11.0713 43.1436 11.4639C42.833 11.8623 42.4521 12.1641 42.001 12.3691C41.5498 12.5801 41.0254 12.6855 40.4277 12.6855C39.8301 12.6855 39.2998 12.5684 38.8369 12.334C38.374 12.1055 37.9873 11.7773 37.6768 11.3496C37.3604 10.9219 37.1201 10.4092 36.9561 9.81152C36.792 9.21973 36.71 8.56055 36.71 7.83398ZM38.3447 7.64941V7.83398C38.3447 8.30859 38.3887 8.75391 38.4766 9.16992C38.5645 9.5918 38.7051 9.96094 38.8984 10.2773C39.0918 10.5996 39.3467 10.8516 39.6631 11.0332C39.9795 11.2207 40.3691 11.3145 40.832 11.3145C41.2422 11.3145 41.5996 11.2441 41.9043 11.1035C42.2031 10.9629 42.458 10.7725 42.6689 10.5322C42.8799 10.2979 43.0527 10.0283 43.1875 9.72363C43.3164 9.4248 43.4131 9.11426 43.4775 8.79199V6.67383C43.3838 6.26367 43.2314 5.86816 43.0205 5.4873C42.8037 5.1123 42.5166 4.80469 42.1592 4.56445C41.7959 4.32422 41.3477 4.2041 40.8145 4.2041C40.375 4.2041 40 4.29199 39.6895 4.46777C39.373 4.64941 39.1182 4.89844 38.9248 5.21484C38.7256 5.53125 38.5791 5.89746 38.4854 6.31348C38.3916 6.72949 38.3447 7.1748 38.3447 7.64941ZM35.084 7.64941V7.85156C35.084 8.53711 34.9844 9.17285 34.7852 9.75879C34.5859 10.3506 34.2988 10.8633 33.9238 11.2969C33.5488 11.7363 33.0947 12.0762 32.5615 12.3164C32.0283 12.5625 31.4307 12.6855 30.7686 12.6855C30.1006 12.6855 29.5 12.5625 28.9668 12.3164C28.4277 12.0762 27.9707 11.7363 27.5957 11.2969C27.2148 10.8633 26.9248 10.3506 26.7256 9.75879C26.5264 9.17285 26.4268 8.53711 26.4268 7.85156V7.64941C26.4268 6.96387 26.5264 6.32813 26.7256 5.74219C26.9248 5.15625 27.2148 4.64355 27.5957 4.2041C27.9707 3.77051 28.4248 3.43066 28.958 3.18457C29.4854 2.94434 30.083 2.82422 30.751 2.82422C31.4189 2.82422 32.0195 2.94434 32.5527 3.18457C33.0859 3.43066 33.543 3.77051 33.9238 4.2041C34.2988 4.64355 34.5859 5.15625 34.7852 5.74219C34.9844 6.32812 35.084 6.96387 35.084 7.64941ZM33.458 7.85156V7.64941C33.458 7.1748 33.4023 6.72656 33.291 6.30469C33.1797 5.88867 33.0127 5.51953 32.79 5.19727C32.5615 4.875 32.2773 4.62012 31.9375 4.43262C31.5977 4.25098 31.2021 4.16016 30.751 4.16016C30.3057 4.16016 29.916 4.25098 29.582 4.43262C29.2422 4.62012 28.9609 4.875 28.7383 5.19727C28.5156 5.51953 28.3486 5.88867 28.2373 6.30469C28.1201 6.72656 28.0615 7.1748 28.0615 7.64941V7.85156C28.0615 8.32031 28.1201 8.7627 28.2373 9.17871C28.3486 9.60059 28.5186 9.97266 28.7471 10.2949C28.9697 10.623 29.251 10.8809 29.5908 11.0684C29.9248 11.2559 30.3174 11.3496 30.7686 11.3496C31.2139 11.3496 31.6064 11.2559 31.9463 11.0684C32.2803 10.8809 32.5615 10.623 32.79 10.2949C33.0127 9.97266 33.1797 9.60059 33.291 9.17871C33.4023 8.7627 33.458 8.32031 33.458 7.85156ZM24.8184 7.64941V7.85156C24.8184 8.53711 24.7187 9.17285 24.5195 9.75879C24.3203 10.3506 24.0332 10.8633 23.6582 11.2969C23.2832 11.7363 22.8291 12.0762 22.2959 12.3164C21.7627 12.5625 21.165 12.6855 20.5029 12.6855C19.835 12.6855 19.2344 12.5625 18.7012 12.3164C18.1621 12.0762 17.7051 11.7363 17.3301 11.2969C16.9492 10.8633 16.6592 10.3506 16.46 9.75879C16.2607 9.17285 16.1611 8.53711 16.1611 7.85156V7.64941C16.1611 6.96387 16.2607 6.32813 16.46 5.74219C16.6592 5.15625 16.9492 4.64355 17.3301 4.2041C17.7051 3.77051 18.1592 3.43066 18.6924 3.18457C19.2197 2.94434 19.8174 2.82422 20.4854 2.82422C21.1533 2.82422 21.7539 2.94434 22.2871 3.18457C22.8203 3.43066 23.2773 3.77051 23.6582 4.2041C24.0332 4.64355 24.3203 5.15625 24.5195 5.74219C24.7187 6.32813 24.8184 6.96387 24.8184 7.64941ZM23.1924 7.85156V7.64941C23.1924 7.1748 23.1367 6.72656 23.0254 6.30469C22.9141 5.88867 22.7471 5.51953 22.5244 5.19727C22.2959 4.875 22.0117 4.62012 21.6719 4.43262C21.332 4.25098 20.9365 4.16016 20.4854 4.16016C20.04 4.16016 19.6504 4.25098 19.3164 4.43262C18.9766 4.62012 18.6953 4.875 18.4727 5.19727C18.25 5.51953 18.083 5.88867 17.9717 6.30469C17.8545 6.72656 17.7959 7.1748 17.7959 7.64941V7.85156C17.7959 8.32031 17.8545 8.7627 17.9717 9.17871C18.083 9.60059 18.2529 9.97266 18.4814 10.2949C18.7041 10.623 18.9854 10.8809 19.3252 11.0684C19.6592 11.2559 20.0518 11.3496 20.5029 11.3496C20.9482 11.3496 21.3408 11.2559 21.6807 11.0684C22.0146 10.8809 22.2959 10.623 22.5244 10.2949C22.7471 9.97266 22.9141 9.60059 23.0254 9.17871C23.1367 8.7627 23.1924 8.32031 23.1924 7.85156ZM12.4873 16.5V3H14.1221L14.1221 16.5H12.4873ZM6.67773 12.5098L10.8262 8.07129L13.1465 5.66309L13.2783 7.39453L11.6172 9.38086L8.66406 12.5098H6.67773ZM8.16309 3L11.5557 7.53516L10.7119 8.98535L6.24707 3H8.16309Z" fill="#EEEEEE"/>
<rect x="45.4524" y="19.2857" width="42.1667" height="1.14286" transform="rotate(180 45.4524 19.2857)" fill="#EEEEEE"/>
</svg>
