<svg width="35" height="35" viewBox="0 0 35 35" fill="none" xmlns="http://www.w3.org/2000/svg">
<path d="M30.7475 4.24958C29.0296 2.53021 26.0312 2.53021 24.3133 4.24958L12.094 16.469C11.9584 16.6043 11.8509 16.765 11.7775 16.9419C11.7041 17.1188 11.6664 17.3085 11.6664 17.5C11.6664 17.6915 11.7041 17.8812 11.7775 18.0581C11.8509 18.235 11.9584 18.3957 12.094 18.531L16.469 22.906C16.6041 23.0419 16.7647 23.1498 16.9417 23.2234C17.1186 23.297 17.3084 23.3348 17.5 23.3348C17.6916 23.3348 17.8814 23.297 18.0583 23.2234C18.2353 23.1498 18.3959 23.0419 18.531 22.906L30.7504 10.6867C31.603 9.83232 32.0816 8.67449 32.081 7.46752C32.0805 6.26055 31.6008 5.10315 30.7475 4.24958ZM28.6883 8.62458L17.5 19.8129L15.1871 17.5L26.3754 6.31167C26.6869 6.01383 27.1015 5.84785 27.5325 5.84839C27.9634 5.84893 28.3776 6.01596 28.6883 6.31458C28.9936 6.62146 29.165 7.03672 29.165 7.46958C29.165 7.90245 28.9936 8.3177 28.6883 8.62458ZM11.6667 21.875C9.82187 20.9504 6.5625 21.875 6.5625 24.7917C6.5625 26.5373 7.29167 27.7083 4.375 29.1667C4.375 29.1667 9.11458 32.4479 12.3958 29.1667C14.2537 27.3088 14.5746 23.3333 11.6667 21.875Z" fill="#398AB9"/>
</svg>
