<svg width="40" height="40" viewBox="0 0 40 40" fill="none" xmlns="http://www.w3.org/2000/svg">
<path d="M7.49998 14.2533C7.49998 17.5783 10.0083 20.0867 13.3333 20.0867C16.6583 20.0867 19.1666 17.5783 19.1666 14.2533C19.1666 10.9283 16.6583 8.42 13.3333 8.42C10.0083 8.42 7.49998 10.9283 7.49998 14.2533ZM6.66665 31.6667H23.3333V30C23.3333 25.405 19.595 21.6667 15 21.6667H11.6666C7.07165 21.6667 3.33331 25.405 3.33331 30V31.6667H6.66665Z" fill="#398AB9"/>
<path d="M28.3334 18.3333H27.7778V27C27.7778 27.3536 27.8949 27.6928 28.1032 27.9428C28.3116 28.1929 28.5942 28.3333 28.8889 28.3333H34.4445C34.7392 28.3333 35.0218 28.1929 35.2301 27.9428C35.4385 27.6928 35.5556 27.3536 35.5556 27V18.3333H28.3334ZM30.5556 26.3333H29.4445V20.3333H30.5556V26.3333ZM33.8889 26.3333H32.7778V20.3333H33.8889V26.3333ZM34.2322 16.3333L33.3334 15H30L29.1011 16.3333H26.6667V17.6667H36.6667V16.3333H34.2322Z" fill="#398AB9"/>
</svg>
