<svg width="40" height="40" viewBox="0 0 40 40" fill="none" xmlns="http://www.w3.org/2000/svg">
<path d="M6.66665 31.6667H23.3333V30C23.3333 25.405 19.595 21.6667 15 21.6667H11.6666C7.07165 21.6667 3.33331 25.405 3.33331 30V31.6667H6.66665ZM13.3333 20C16.6583 20 19.1666 17.4917 19.1666 14.1667C19.1666 10.8417 16.6583 8.33334 13.3333 8.33334C10.0083 8.33334 7.49998 10.8417 7.49998 14.1667C7.49998 17.4917 10.0083 20 13.3333 20Z" fill="#398AB9"/>
<path d="M30.3777 27.0956L35.8779 20.5954L33.2654 17.508L27.7653 24.0081C27.6896 24.0977 27.6358 24.2099 27.6096 24.3327L27 28L30.1025 27.2795C30.2067 27.2488 30.302 27.1851 30.3777 27.0956V27.0956ZM37.6534 18.497C37.8753 18.2347 38 17.8789 38 17.508C38 17.137 37.8753 16.7813 37.6534 16.5189L36.7147 15.4096C36.4928 15.1473 36.1917 15 35.8779 15C35.564 15 35.2629 15.1473 35.041 15.4096L34.1023 16.5189L36.7147 19.6064L37.6534 18.497Z" fill="#398AB9"/>
</svg>
